<?xml version="1.0" encoding="UTF-8" standalone="no"?>
<!-- Created with Inkscape (http://www.inkscape.org/) -->

<svg
   xmlns:dc="http://purl.org/dc/elements/1.1/"
   xmlns:cc="http://creativecommons.org/ns#"
   xmlns:rdf="http://www.w3.org/1999/02/22-rdf-syntax-ns#"
   xmlns:svg="http://www.w3.org/2000/svg"
   xmlns="http://www.w3.org/2000/svg"
   xmlns:sodipodi="http://sodipodi.sourceforge.net/DTD/sodipodi-0.dtd"
   xmlns:inkscape="http://www.inkscape.org/namespaces/inkscape"
   width="16"
   height="16"
   id="svg2"
   version="1.1"
   inkscape:version="0.48.4 r9939"
   sodipodi:docname="unit.svg"
   inkscape:export-filename="/home/jeremy/IF/DEV/experiments/tdg/public/img/unit.png"
   inkscape:export-xdpi="90"
   inkscape:export-ydpi="90">
  <defs
     id="defs4" />
  <sodipodi:namedview
     id="base"
     pagecolor="#ffffff"
     bordercolor="#666666"
     borderopacity="1.0"
     inkscape:pageopacity="0.0"
     inkscape:pageshadow="2"
     inkscape:zoom="44.8"
     inkscape:cx="12.340461"
     inkscape:cy="9.0426578"
     inkscape:document-units="px"
     inkscape:current-layer="layer1"
     showgrid="false"
     fit-margin-top="0"
     fit-margin-left="0"
     fit-margin-right="0"
     fit-margin-bottom="0"
     inkscape:window-width="1600"
     inkscape:window-height="853"
     inkscape:window-x="-2"
     inkscape:window-y="-3"
     inkscape:window-maximized="1" />
  <metadata
     id="metadata7">
    <rdf:RDF>
      <cc:Work
         rdf:about="">
        <dc:format>image/svg+xml</dc:format>
        <dc:type
           rdf:resource="http://purl.org/dc/dcmitype/StillImage" />
        <dc:title></dc:title>
      </cc:Work>
    </rdf:RDF>
  </metadata>
  <g
     inkscape:label="Layer 1"
     inkscape:groupmode="layer"
     id="layer1"
     transform="translate(0,-1036.3622)">
    <path
       sodipodi:type="arc"
       style="color:#000000;fill:#241c1c;fill-opacity:1;fill-rule:nonzero;stroke:none;stroke-width:0.5;marker:none;visibility:visible;display:inline;overflow:visible;enable-background:accumulate"
       id="path3044"
       sodipodi:cx="11.995562"
       sodipodi:cy="12.572649"
       sodipodi:rx="3.5986683"
       sodipodi:ry="3.5355339"
       d="m 15.59423,12.572649 c 0,1.952621 -1.611179,3.535534 -3.598668,3.535534 -1.98749,0 -3.5986687,-1.582913 -3.5986687,-3.535534 0,-1.952621 1.6111787,-3.5355339 3.5986687,-3.5355339 1.987489,0 3.598668,1.5829129 3.598668,3.5355339 z"
       transform="matrix(1.3333333,0,0,1.3333333,-7.9940817,1027.5987)" />
    <rect
       style="color:#000000;fill:#241c1c;fill-opacity:1;fill-rule:nonzero;stroke:none;stroke-width:0.5;marker:none;visibility:visible;display:inline;overflow:visible;enable-background:accumulate"
       id="rect3046"
       width="16.962559"
       height="2.1600304"
       x="694.81464"
       y="770.99957"
       transform="matrix(0.74436376,0.66777436,-0.66777436,0.74436376,0,0)"
       ry="1.0455877" />
    <rect
       transform="matrix(-0.74910229,0.66245435,-0.66245435,-0.74910229,0,0)"
       y="-788.75018"
       x="677.42554"
       height="2.2328515"
       width="16.847879"
       id="rect3818"
       style="color:#000000;fill:#241c1c;fill-opacity:1;fill-rule:nonzero;stroke:none;stroke-width:0.5;marker:none;visibility:visible;display:inline;overflow:visible;enable-background:accumulate"
       ry="0.91397816" />
    <g
       id="g3836"
       transform="translate(0.12096887,0)">
      <g
         id="g3826">
        <path
           sodipodi:type="arc"
           style="color:#000000;fill:#ffffff;fill-opacity:1;fill-rule:nonzero;stroke:none;stroke-width:0.5;marker:none;visibility:visible;display:inline;overflow:visible;enable-background:accumulate"
           id="path3820"
           sodipodi:cx="6.6291261"
           sodipodi:cy="9.8443832"
           sodipodi:rx="0.88388342"
           sodipodi:ry="1.1679889"
           d="m 7.5130095,9.8443832 c 0,0.6450628 -0.3957281,1.1679888 -0.8838834,1.1679888 -0.4881554,0 -0.8838834,-0.522926 -0.8838834,-1.1679888 0,-0.6450624 0.395728,-1.1679889 0.8838834,-1.1679889 0.4881553,0 0.8838834,0.5229265 0.8838834,1.1679889 z"
           transform="matrix(1.1607143,0,0,1.1607143,-1.0653953,1034.7801)" />
        <path
           sodipodi:type="arc"
           style="color:#000000;fill:#000000;fill-opacity:1;fill-rule:nonzero;stroke:none;stroke-width:0.5;marker:none;visibility:visible;display:inline;overflow:visible;enable-background:accumulate"
           id="path3824"
           sodipodi:cx="6.597559"
           sodipodi:cy="10.586214"
           sodipodi:rx="0.25253814"
           sodipodi:ry="0.40248266"
           d="m 6.8500971,10.586214 c 0,0.222285 -0.1130652,0.402483 -0.2525381,0.402483 -0.139473,0 -0.2525382,-0.180198 -0.2525382,-0.402483 0,-0.222285 0.1130652,-0.402483 0.2525382,-0.402483 0.1394729,0 0.2525381,0.180198 0.2525381,0.402483 z"
           transform="matrix(1.2941176,0,0,1.2941176,-1.9404585,1033.2486)" />
      </g>
      <g
         transform="translate(2.49981,0)"
         id="g3830">
        <path
           transform="matrix(1.1607143,0,0,1.1607143,-1.0653953,1034.7801)"
           d="m 7.5130095,9.8443832 c 0,0.6450628 -0.3957281,1.1679888 -0.8838834,1.1679888 -0.4881554,0 -0.8838834,-0.522926 -0.8838834,-1.1679888 0,-0.6450624 0.395728,-1.1679889 0.8838834,-1.1679889 0.4881553,0 0.8838834,0.5229265 0.8838834,1.1679889 z"
           sodipodi:ry="1.1679889"
           sodipodi:rx="0.88388342"
           sodipodi:cy="9.8443832"
           sodipodi:cx="6.6291261"
           id="path3832"
           style="color:#000000;fill:#ffffff;fill-opacity:1;fill-rule:nonzero;stroke:none;stroke-width:0.5;marker:none;visibility:visible;display:inline;overflow:visible;enable-background:accumulate"
           sodipodi:type="arc" />
        <path
           transform="matrix(1.2941176,0,0,1.2941176,-1.9404585,1033.2486)"
           d="m 6.8500971,10.586214 c 0,0.222285 -0.1130652,0.402483 -0.2525381,0.402483 -0.139473,0 -0.2525382,-0.180198 -0.2525382,-0.402483 0,-0.222285 0.1130652,-0.402483 0.2525382,-0.402483 0.1394729,0 0.2525381,0.180198 0.2525381,0.402483 z"
           sodipodi:ry="0.40248266"
           sodipodi:rx="0.25253814"
           sodipodi:cy="10.586214"
           sodipodi:cx="6.597559"
           id="path3834"
           style="color:#000000;fill:#000000;fill-opacity:1;fill-rule:nonzero;stroke:none;stroke-width:0.5;marker:none;visibility:visible;display:inline;overflow:visible;enable-background:accumulate"
           sodipodi:type="arc" />
      </g>
    </g>
  </g>
</svg>
